<svg version="1.2" xmlns="http://www.w3.org/2000/svg" viewBox="0 0 24 24" width="24" height="24">
	<title>spotify</title>
	<defs>
		<clipPath clipPathUnits="userSpaceOnUse" id="cp1">
			<path d="m0 0h24v24h-24z"/>
		</clipPath>
	</defs>
	<style>
		.s0 { fill: #ffffff } 
	</style>
	<g id="Clip-Path" clip-path="url(#cp1)">
		<g>
			<path class="s0" d="m12 0.4c-6.6 0-12 5.2-12 11.6 0 6.4 5.4 11.6 12 11.6 6.6 0 12-5.2 12-11.6 0-6.4-5.4-11.6-12-11.6zm4.9 17.1c-0.2 0-0.4-0.1-0.5-0.2-3.1-1.8-6.6-1.8-10-1.1-0.2 0-0.5 0.1-0.6 0.1-0.5 0-0.8-0.4-0.8-0.8 0-0.4 0.3-0.7 0.7-0.7 3.9-0.9 8-0.8 11.4 1.2 0.3 0.2 0.5 0.3 0.5 0.8 0 0.4-0.3 0.7-0.7 0.7zm1.3-3.1c-0.3 0-0.4-0.1-0.6-0.2-3-1.7-7.6-2.4-11.6-1.4-0.2 0.1-0.3 0.2-0.5 0.2-0.6 0-1-0.5-1-1q0-0.7 0.8-0.9c1.3-0.4 2.7-0.7 4.7-0.7 3.1 0 6.2 0.8 8.6 2.2 0.4 0.2 0.5 0.5 0.5 0.9 0 0.5-0.4 0.9-0.9 0.9zm1.5-3.6c-0.3 0-0.4 0-0.7-0.1-3.4-2-9.6-2.5-13.5-1.4-0.2 0-0.4 0.1-0.7 0.1-0.6 0-1.1-0.5-1.1-1.1 0-0.7 0.4-1 0.8-1.1q2.6-0.8 5.7-0.8c3.6 0 7.3 0.8 10 2.3 0.4 0.2 0.6 0.5 0.6 1 0 0.7-0.5 1.1-1.1 1.1z"/>
		</g>
	</g>
</svg>